<svg width="24" height="24" viewBox="0 0 24 24" fill="current" stroke="none" xmlns="http://www.w3.org/2000/svg">
<path d="M21.9874 7.88003C21.9405 6.81735 21.7687 6.08676 21.5225 5.4537C21.2686 4.78172 20.8779 4.1801 20.366 3.67997C19.8659 3.17205 19.2603 2.77738 18.5961 2.52739C17.9593 2.28122 17.2326 2.10937 16.1699 2.06251C15.0993 2.01169 14.7594 1.99994 12.044 1.99994C9.32861 1.99994 8.98873 2.01169 7.92208 2.05854C6.8594 2.1054 6.12881 2.2774 5.4959 2.52342C4.82377 2.77738 4.22215 3.16808 3.72202 3.67997C3.2141 4.1801 2.81958 4.78569 2.56944 5.44988C2.32327 6.08676 2.15142 6.81338 2.10457 7.87606C2.05374 8.94668 2.04199 9.28657 2.04199 12.002C2.04199 14.7174 2.05374 15.0572 2.1006 16.1239C2.14745 17.1866 2.31945 17.9172 2.56563 18.5502C2.81958 19.2222 3.2141 19.8238 3.72202 20.324C4.22215 20.8319 4.82774 21.2265 5.49193 21.4765C6.12881 21.7227 6.85543 21.8946 7.91826 21.9414C8.98476 21.9884 9.3248 22 12.0402 22C14.7556 22 15.0955 21.9884 16.1621 21.9414C17.2248 21.8946 17.9554 21.7227 18.5883 21.4765C19.9324 20.9569 20.9951 19.8942 21.5147 18.5502C21.7608 17.9133 21.9328 17.1866 21.9796 16.1239C22.0265 15.0572 22.0382 14.7174 22.0382 12.002C22.0382 9.28657 22.0343 8.94668 21.9874 7.88003ZM20.1864 16.0457C20.1433 17.0225 19.9792 17.55 19.8425 17.9016C19.5064 18.7729 18.8149 19.4644 17.9436 19.8005C17.592 19.9372 17.0607 20.1013 16.0878 20.1442C15.0329 20.1912 14.7165 20.2028 12.048 20.2028C9.37943 20.2028 9.05909 20.1912 8.008 20.1442C7.03124 20.1013 6.50379 19.9372 6.15216 19.8005C5.71857 19.6402 5.3239 19.3863 5.00355 19.0542C4.67146 18.7298 4.4175 18.3391 4.25725 17.9056C4.1205 17.5539 3.95644 17.0225 3.91355 16.0497C3.86655 14.9948 3.85495 14.6783 3.85495 12.0097C3.85495 9.3412 3.86655 9.02086 3.91355 7.96993C3.95644 6.99317 4.1205 6.46572 4.25725 6.11408C4.4175 5.68034 4.67146 5.28582 5.00752 4.96532C5.33168 4.63322 5.72239 4.37926 6.15613 4.21917C6.50776 4.08242 7.03918 3.91836 8.01197 3.87532C9.06687 3.82846 9.3834 3.81671 12.0518 3.81671C14.7243 3.81671 15.0407 3.82846 16.0917 3.87532C17.0685 3.91836 17.596 4.08242 17.9476 4.21917C18.3812 4.37926 18.7759 4.63322 19.0962 4.96532C19.4283 5.28964 19.6823 5.68034 19.8425 6.11408C19.9792 6.46572 20.1433 6.99698 20.1864 7.96993C20.2332 9.02483 20.245 9.3412 20.245 12.0097C20.245 14.6783 20.2332 14.9908 20.1864 16.0457Z"/>
<path d="M12.044 6.8642C9.20759 6.8642 6.90625 9.16538 6.90625 12.002C6.90625 14.8385 9.20759 17.1397 12.044 17.1397C14.8806 17.1397 17.1818 14.8385 17.1818 12.002C17.1818 9.16538 14.8806 6.8642 12.044 6.8642ZM12.044 15.3347C10.2039 15.3347 8.71127 13.8422 8.71127 12.002C8.71127 10.1617 10.2039 8.66922 12.044 8.66922C13.8843 8.66922 15.3767 10.1617 15.3767 12.002C15.3767 13.8422 13.8843 15.3347 12.044 15.3347V15.3347Z" />
<path d="M18.5841 6.66104C18.5841 7.32341 18.047 7.86048 17.3845 7.86048C16.7221 7.86048 16.1851 7.32341 16.1851 6.66104C16.1851 5.99852 16.7221 5.46161 17.3845 5.46161C18.047 5.46161 18.5841 5.99852 18.5841 6.66104V6.66104Z"/>
</svg>
