<svg width="24" height="24" viewBox="0 0 24 24" fill="current" stroke="none" xmlns="http://www.w3.org/2000/svg">
<path fill-rule="evenodd" clip-rule="evenodd" d="M4.45097 2.00207C4.62929 1.69151 4.96007 1.5 5.31819 1.5H18.6818C19.0399 1.5 19.3707 1.69151 19.549 2.00207L23.3672 8.65207C23.5773 9.01795 23.5352 9.47631 23.2619 9.79774L12.7619 22.1477C12.5719 22.3712 12.2933 22.5 12 22.5C11.7067 22.5 11.4281 22.3712 11.2381 22.1477L0.738146 9.79774C0.464868 9.47631 0.422716 9.01795 0.632789 8.65207L4.45097 2.00207ZM5.89714 3.5L2.7174 9.03805L12 19.9562L21.2826 9.03805L18.1029 3.5H5.89714Z" />
<path fill-rule="evenodd" clip-rule="evenodd" d="M7.61139 8.22488C8.13239 8.04165 8.70328 8.31548 8.88651 8.83648L11.9998 18.4858L15.113 8.83649C15.2963 8.31548 15.8671 8.04165 16.3881 8.22488C16.9092 8.4081 17.183 8.97899 16.9998 9.5L12.9431 21.8318C12.8023 22.2321 12.4242 22.5 11.9998 22.5C11.5754 22.5 11.1972 22.2321 11.0564 21.8318L6.99978 9.5C6.81655 8.97899 7.09038 8.4081 7.61139 8.22488Z" />
<path fill-rule="evenodd" clip-rule="evenodd" d="M0.5 9.15002C0.5 8.59774 0.947715 8.15002 1.5 8.15002H22.5C23.0523 8.15002 23.5 8.59774 23.5 9.15002C23.5 9.70231 23.0523 10.15 22.5 10.15H1.5C0.947715 10.15 0.5 9.70231 0.5 9.15002Z" />
<path fill-rule="evenodd" clip-rule="evenodd" d="M12.0002 1.5C12.3397 1.5 12.656 1.67224 12.8402 1.95742L17.1356 8.60742C17.4353 9.07134 17.3021 9.69034 16.8382 9.99C16.3743 10.2897 15.7553 10.1565 15.4556 9.69258L12.0002 4.34303L8.54471 9.69258C8.24505 10.1565 7.62604 10.2897 7.16213 9.99C6.69821 9.69034 6.56505 9.07134 6.86471 8.60742L11.1602 1.95742C11.3444 1.67224 11.6607 1.5 12.0002 1.5Z" />
</svg>
