<svg width="24" height="24" viewBox="0 0 24 24" fill="current" stroke="current" xmlns="http://www.w3.org/2000/svg">
<path d="M21.6401 13L21.3367 13.3974C21.4152 13.4574 21.4742 13.5392 21.5062 13.6327C21.5383 13.7261 21.5419 13.8269 21.5167 13.9224L21.5166 13.9224L21.5149 13.9296C21.1213 15.5156 20.3311 16.9756 19.2184 18.1723C18.1056 19.3691 16.707 20.2633 15.1537 20.771C13.6005 21.2787 11.9437 21.3833 10.339 21.0748C8.73422 20.7664 7.23423 20.0551 5.9799 19.0077C4.72558 17.9603 3.75808 16.6113 3.1683 15.0873C2.57853 13.5634 2.38584 11.9145 2.60833 10.2956C2.83082 8.6767 3.46119 7.14094 4.44022 5.83257C5.41541 4.52934 6.70465 3.49435 8.18765 2.82395C8.26726 2.79683 8.35249 2.79021 8.43546 2.80479C8.52302 2.82018 8.60489 2.85864 8.67264 2.9162C8.74038 2.97376 8.79156 3.04834 8.82089 3.13226C8.84915 3.2131 8.85615 3.2998 8.84131 3.38403C8.67259 4.07231 8.58494 4.77797 8.58015 5.48665L8.58011 5.48665L8.58015 5.4931C8.59415 7.77617 9.51021 9.96113 11.1286 11.5716C12.747 13.182 14.9364 14.0873 17.2195 14.09C17.2193 14.09 17.2191 14.09 17.2189 14.09L21.6401 13ZM21.6401 13L21.3216 13.3854C21.2494 13.3258 21.1619 13.2876 21.0691 13.2752C20.9766 13.2629 20.8825 13.2767 20.7974 13.3151L21.6401 13ZM7.58014 5.48954L7.58014 5.22003V4.17287L6.7658 4.8312C5.38048 5.9511 4.3752 7.47183 3.88757 9.18517C3.39995 10.8985 3.45383 12.7207 4.04184 14.4022C4.62985 16.0837 5.72325 17.5424 7.17231 18.5785C8.48637 19.518 10.0347 20.0685 11.6401 20.1722V20.2294L12.1395 20.23C13.7072 20.232 15.2457 19.8058 16.5891 18.9976C17.9324 18.1894 19.0295 17.0297 19.7622 15.6437L20.2636 14.695L19.2147 14.9213C18.5599 15.0625 17.8918 15.1325 17.222 15.13L17.2206 15.13C14.6646 15.1275 12.2139 14.111 10.4066 12.3036C8.59927 10.4963 7.58278 8.0459 7.58014 5.49003C7.58014 5.48987 7.58014 5.4897 7.58014 5.48954Z"/>
</svg>
